<?xml version="1.0" encoding="UTF-8" standalone="no"?>
<!DOCTYPE svg PUBLIC "-//W3C//DTD SVG 1.1//EN" "http://www.w3.org/Graphics/SVG/1.1/DTD/svg11.dtd">
<svg width="100%" height="100%" viewBox="0 0 665 407" version="1.1" xmlns="http://www.w3.org/2000/svg" xmlns:xlink="http://www.w3.org/1999/xlink" xml:space="preserve" xmlns:serif="http://www.serif.com/" style="fill-rule:evenodd;clip-rule:evenodd;stroke-linejoin:round;stroke-miterlimit:2;">
    <g transform="matrix(1,0,0,1,-154.829099,-315.978146)">
        <g transform="matrix(1.355657,0,0,1.355657,-150.193729,-158.501809)">
            <path d="M448.005,350.964C442.461,350.984 437.97,355.467 437.939,361.01C437.768,391.931 437.249,485.839 437.065,519.085C437.025,526.312 432.853,532.879 426.328,535.987C405.295,546.002 359.07,568.014 342.265,576.017C338.438,577.839 336,581.7 336,585.939L336,640.64C336,643.123 336.986,645.503 338.741,647.259C340.497,649.014 342.877,650 345.36,650L705.15,650C709.485,650 713,646.485 713,642.15C713,629.296 713,603.897 713,590.967C713,586.12 710.151,581.726 705.727,579.748C683.349,569.741 615.826,539.548 595.713,530.555C592.217,528.992 589.919,525.572 589.792,521.745C589.641,517.219 589.435,511.06 589.272,506.149C589.108,501.248 592.004,496.76 596.537,494.889C618.35,485.887 681.512,459.821 705.555,449.898C711.249,447.548 714.915,441.943 714.787,435.785C714.418,418.062 713.66,381.678 713.26,362.486C713.116,355.556 707.443,350.02 700.511,350.045C653.848,350.215 490.241,350.81 448.005,350.964Z"/>
        </g>
        <g transform="matrix(1.355657,0,0,1.355657,-150.193729,-158.501809)">
            <path d="M401.313,376.876C407.804,376.945 413.045,382.196 413.102,388.687C413.297,411.131 413.721,459.944 413.908,481.457C413.931,484.117 412.805,486.658 410.818,488.427C408.832,490.197 406.178,491.022 403.538,490.692C380.059,487.757 323.569,480.696 302.293,478.037C297.023,477.378 292.293,474.477 289.317,470.077C278.294,453.783 250.498,412.693 235.306,390.235C233.297,387.265 233.102,383.427 234.8,380.269C236.498,377.112 239.807,375.158 243.392,375.196C281.805,375.604 369.612,376.538 401.313,376.876Z"/>
        </g>
    </g>
</svg>
